<svg xmlns="http://www.w3.org/2000/svg" xmlns:xlink="http://www.w3.org/1999/xlink" width="276" zoomAndPan="magnify" viewBox="0 0 206.87999 61.499998" height="82" preserveAspectRatio="xMidYMid meet" version="1.0"><defs><g/><clipPath id="783817f7b8"><path d="M 32.105469 11.519531 L 46.390625 11.519531 L 46.390625 25.804688 L 32.105469 25.804688 Z M 32.105469 11.519531 " clip-rule="nonzero"/></clipPath><clipPath id="ce274b92f5"><path d="M 39.246094 11.519531 C 35.300781 11.519531 32.105469 14.71875 32.105469 18.660156 C 32.105469 22.605469 35.300781 25.804688 39.246094 25.804688 C 43.191406 25.804688 46.390625 22.605469 46.390625 18.660156 C 46.390625 14.71875 43.191406 11.519531 39.246094 11.519531 Z M 39.246094 11.519531 " clip-rule="nonzero"/></clipPath><clipPath id="0d1f26aadb"><path d="M 0.105469 0.519531 L 14.390625 0.519531 L 14.390625 14.804688 L 0.105469 14.804688 Z M 0.105469 0.519531 " clip-rule="nonzero"/></clipPath><clipPath id="e4be0cd69a"><path d="M 7.246094 0.519531 C 3.300781 0.519531 0.105469 3.71875 0.105469 7.660156 C 0.105469 11.605469 3.300781 14.804688 7.246094 14.804688 C 11.191406 14.804688 14.390625 11.605469 14.390625 7.660156 C 14.390625 3.71875 11.191406 0.519531 7.246094 0.519531 Z M 7.246094 0.519531 " clip-rule="nonzero"/></clipPath><clipPath id="783dcf3d4a"><rect x="0" width="15" y="0" height="15"/></clipPath><clipPath id="d6299fda1d"><path d="M 27 8.738281 L 30 8.738281 L 30 52.628906 L 27 52.628906 Z M 27 8.738281 " clip-rule="nonzero"/></clipPath><clipPath id="8b5fa30c8d"><path d="M 16 8.738281 L 30 8.738281 L 30 52.628906 L 16 52.628906 Z M 16 8.738281 " clip-rule="nonzero"/></clipPath><clipPath id="b8563ea891"><path d="M 27 8.738281 L 35 8.738281 L 35 14 L 27 14 Z M 27 8.738281 " clip-rule="nonzero"/></clipPath><clipPath id="1f8bdf033a"><path d="M 27 32 L 50.769531 32 L 50.769531 52.628906 L 27 52.628906 Z M 27 32 " clip-rule="nonzero"/></clipPath><clipPath id="822fecd193"><path d="M 6.875 8.738281 L 33 8.738281 L 33 52.628906 L 6.875 52.628906 Z M 6.875 8.738281 " clip-rule="nonzero"/></clipPath><clipPath id="66af5dc7a7"><path d="M 27 29 L 41 29 L 41 52.628906 L 27 52.628906 Z M 27 29 " clip-rule="nonzero"/></clipPath></defs><g clip-path="url(#783817f7b8)"><g clip-path="url(#ce274b92f5)"><g transform="matrix(1, 0, 0, 1, 32, 11)"><g clip-path="url(#783dcf3d4a)"><g clip-path="url(#0d1f26aadb)"><g clip-path="url(#e4be0cd69a)"><path fill="#e3e9f3" d="M 0.105469 0.519531 L 14.390625 0.519531 L 14.390625 14.804688 L 0.105469 14.804688 Z M 0.105469 0.519531 " fill-opacity="1" fill-rule="nonzero"/></g></g></g></g></g></g><g clip-path="url(#d6299fda1d)"><path stroke-linecap="round" transform="matrix(0.954199, 0, 0, 0.954199, 6.0163, 7.78227)" fill="none" stroke-linejoin="round" d="M 24.000943 2.000774 L 24.000943 46.000389 " stroke="#000000" stroke-width="2" stroke-opacity="1" stroke-miterlimit="10"/></g><path stroke-linecap="round" transform="matrix(0.954199, 0, 0, 0.954199, 6.0163, 7.78227)" fill="none" stroke-linejoin="round" d="M 24.000943 13.999553 L 5.001854 13.999553 " stroke="#000000" stroke-width="2" stroke-opacity="1" stroke-miterlimit="10"/><path stroke-linecap="round" transform="matrix(0.954199, 0, 0, 0.954199, 6.0163, 7.78227)" fill="none" stroke-linejoin="round" d="M 43.000033 34.001611 L 5.001854 34.001611 " stroke="#000000" stroke-width="2" stroke-opacity="1" stroke-miterlimit="10"/><g clip-path="url(#8b5fa30c8d)"><path stroke-linecap="round" transform="matrix(0.954199, 0, 0, 0.954199, 6.0163, 7.78227)" fill="none" stroke-linejoin="round" d="M 24.131943 46.000389 C 16.902383 41.353984 12.108602 33.23608 12.108602 24.000582 C 12.108602 14.765084 16.902383 6.64718 24.131943 2.000774 " stroke="#000000" stroke-width="2" stroke-opacity="1" stroke-miterlimit="10"/></g><g clip-path="url(#b8563ea891)"><path stroke-linecap="round" transform="matrix(0.954199, 0, 0, 0.954199, 6.0163, 7.78227)" fill="none" stroke-linejoin="round" d="M 28.635067 2.492024 C 27.140849 2.172712 25.589318 2.000774 24.000943 2.000774 C 23.714381 2.000774 23.427818 2.008962 23.141256 2.021243 C 24.336631 2.790868 25.462412 3.66693 26.510412 4.61668 " stroke="#000000" stroke-width="2" stroke-opacity="1" stroke-miterlimit="10"/></g><g clip-path="url(#1f8bdf033a)"><path stroke-linecap="round" transform="matrix(0.954199, 0, 0, 0.954199, 6.0163, 7.78227)" fill="none" stroke-linejoin="round" d="M 23.141256 45.97992 C 23.427818 45.988108 23.714381 46.000389 24.000943 46.000389 C 35.131847 46.000389 44.334595 37.731016 45.796063 27.0013 " stroke="#000000" stroke-width="2" stroke-opacity="1" stroke-miterlimit="10"/></g><g clip-path="url(#822fecd193)"><path stroke-linecap="round" transform="matrix(0.954199, 0, 0, 0.954199, 6.0163, 7.78227)" fill="none" stroke-linejoin="round" d="M 26.510412 4.61668 C 25.462412 3.66693 24.336631 2.790868 23.141256 2.021243 C 11.392196 2.471556 2.001136 12.136897 2.001136 24.000582 C 2.001136 35.864267 11.392196 45.525514 23.141256 45.97992 " stroke="#000000" stroke-width="2" stroke-opacity="1" stroke-miterlimit="10"/></g><path stroke-linecap="round" transform="matrix(0.954199, 0, 0, 0.954199, 6.0163, 7.78227)" fill="none" stroke-linejoin="round" d="M 42.623408 11.498272 C 42.623408 11.993616 42.578377 12.480772 42.480127 12.963834 C 42.38597 13.446897 42.242689 13.913584 42.054377 14.372084 C 41.866064 14.82649 41.632721 15.256334 41.362533 15.665709 C 41.088252 16.075084 40.777127 16.455802 40.429158 16.803771 C 40.08119 17.15174 39.700471 17.462865 39.291096 17.737146 C 38.881721 18.011427 38.451877 18.240677 37.993378 18.428989 C 37.538971 18.617302 37.072284 18.760583 36.589222 18.854739 C 36.106159 18.952989 35.619003 18.99802 35.12366 18.99802 C 34.63241 18.99802 34.145254 18.952989 33.662191 18.854739 C 33.179129 18.760583 32.708348 18.617302 32.253941 18.428989 C 31.799535 18.240677 31.369692 18.011427 30.956223 17.737146 C 30.546848 17.462865 30.170223 17.15174 29.822255 16.803771 C 29.474286 16.455802 29.163161 16.075084 28.88888 15.665709 C 28.614599 15.256334 28.385349 14.82649 28.197036 14.372084 C 28.008724 13.913584 27.865442 13.446897 27.767192 12.963834 C 27.673036 12.480772 27.623911 11.993616 27.623911 11.498272 C 27.623911 11.007022 27.673036 10.519866 27.767192 10.036804 C 27.865442 9.553741 28.008724 9.08296 28.197036 8.628554 C 28.385349 8.174148 28.614599 7.744304 28.88888 7.334929 C 29.163161 6.925555 29.474286 6.544836 29.822255 6.196867 C 30.170223 5.848899 30.546848 5.537774 30.956223 5.263492 C 31.369692 4.989211 31.799535 4.759961 32.253941 4.571649 C 32.708348 4.383336 33.179129 4.240055 33.662191 4.145899 C 34.145254 4.047649 34.63241 3.998524 35.12366 3.998524 C 35.619003 3.998524 36.106159 4.047649 36.589222 4.145899 C 37.072284 4.240055 37.538971 4.383336 37.993378 4.571649 C 38.451877 4.759961 38.881721 4.989211 39.291096 5.263492 C 39.700471 5.537774 40.08119 5.848899 40.429158 6.196867 C 40.777127 6.544836 41.088252 6.925555 41.362533 7.334929 C 41.632721 7.744304 41.866064 8.174148 42.054377 8.628554 C 42.242689 9.08296 42.38597 9.553741 42.480127 10.036804 C 42.578377 10.519866 42.623408 11.007022 42.623408 11.498272 Z M 42.623408 11.498272 " stroke="#000000" stroke-width="2" stroke-opacity="1" stroke-miterlimit="10"/><path stroke-linecap="round" transform="matrix(0.954199, 0, 0, 0.954199, 6.0163, 7.78227)" fill="none" stroke-linejoin="round" d="M 40.998189 17.000271 L 45.001876 21.998739 " stroke="#000000" stroke-width="2" stroke-opacity="1" stroke-miterlimit="10"/><g clip-path="url(#66af5dc7a7)"><path stroke-linecap="round" transform="matrix(0.954199, 0, 0, 0.954199, 6.0163, 7.78227)" fill="none" stroke-linejoin="round" d="M 23.108506 46.000389 C 30.342161 41.353984 35.131847 33.23608 35.131847 24.000582 " stroke="#000000" stroke-width="2" stroke-opacity="1" stroke-miterlimit="10"/></g><g fill="#1f2937" fill-opacity="1"><g transform="translate(61.935348, 40.650656)"><g><path d="M 0.65625 -18.484375 L 9.4375 -18.484375 L 9.4375 -15 L 7.796875 -15 L 7.796875 -3.515625 L 9.4375 -3.515625 L 9.4375 0 L 0.65625 0 L 0.65625 -3.515625 L 2.328125 -3.515625 L 2.328125 -15 L 0.65625 -15 Z M 0.65625 -18.484375 "/></g></g></g><g fill="#1f2937" fill-opacity="1"><g transform="translate(72.037371, 40.650656)"><g><path d="M 8.8125 0 L 0.65625 0 L 0.65625 -3.46875 L 1.765625 -3.46875 L 1.765625 -9.78125 L 0.65625 -9.78125 L 0.65625 -13.21875 L 6.296875 -13.21875 L 6.90625 -11.59375 C 7.363281 -12.207031 7.898438 -12.710938 8.515625 -13.109375 C 9.128906 -13.503906 9.851562 -13.703125 10.6875 -13.703125 C 11.707031 -13.703125 12.535156 -13.53125 13.171875 -13.1875 C 13.804688 -12.84375 14.285156 -12.390625 14.609375 -11.828125 C 14.941406 -11.265625 15.164062 -10.640625 15.28125 -9.953125 C 15.40625 -9.265625 15.46875 -8.578125 15.46875 -7.890625 L 15.46875 -3.46875 L 16.71875 -3.46875 L 16.71875 0 L 10.046875 0 L 10.046875 -7.21875 C 10.046875 -7.519531 10.03125 -7.863281 10 -8.25 C 9.976562 -8.632812 9.863281 -8.96875 9.65625 -9.25 C 9.457031 -9.539062 9.097656 -9.6875 8.578125 -9.6875 C 8.128906 -9.6875 7.78125 -9.554688 7.53125 -9.296875 C 7.289062 -9.046875 7.125 -8.734375 7.03125 -8.359375 C 6.945312 -7.984375 6.90625 -7.601562 6.90625 -7.21875 L 6.90625 -3.46875 L 8.8125 -3.46875 Z M 8.8125 0 "/></g></g></g><g fill="#1f2937" fill-opacity="1"><g transform="translate(89.147338, 40.650656)"><g><path d="M 8.625 -4.28125 L 8.734375 -4.28125 C 8.742188 -4.5625 8.816406 -4.988281 8.953125 -5.5625 C 9.097656 -6.132812 9.285156 -6.675781 9.515625 -7.1875 L 10.796875 -9.859375 L 9.390625 -9.859375 L 9.390625 -13.21875 L 16.21875 -13.21875 L 16.21875 -9.859375 L 14.84375 -9.859375 L 10.265625 0 L 6.15625 0 L 1.25 -9.859375 L 0 -9.859375 L 0 -13.21875 L 8.046875 -13.21875 L 8.046875 -9.859375 L 6.71875 -9.859375 L 7.9375 -7.0625 C 8.113281 -6.570312 8.265625 -6.054688 8.390625 -5.515625 C 8.523438 -4.972656 8.601562 -4.5625 8.625 -4.28125 Z M 8.625 -4.28125 "/></g></g></g><g fill="#1f2937" fill-opacity="1"><g transform="translate(105.358173, 40.650656)"><g><path d="M 11.71875 -4.390625 L 13.9375 -1.828125 C 12.96875 -0.984375 11.929688 -0.390625 10.828125 -0.046875 C 9.722656 0.296875 8.484375 0.46875 7.109375 0.46875 C 6.304688 0.46875 5.488281 0.332031 4.65625 0.0625 C 3.820312 -0.207031 3.066406 -0.628906 2.390625 -1.203125 C 1.710938 -1.773438 1.164062 -2.515625 0.75 -3.421875 C 0.332031 -4.328125 0.125 -5.414062 0.125 -6.6875 C 0.125 -8.132812 0.441406 -9.375 1.078125 -10.40625 C 1.710938 -11.4375 2.566406 -12.222656 3.640625 -12.765625 C 4.722656 -13.316406 5.925781 -13.59375 7.25 -13.59375 C 8.820312 -13.59375 10.171875 -13.226562 11.296875 -12.5 C 12.421875 -11.78125 13.179688 -10.867188 13.578125 -9.765625 C 13.679688 -9.460938 13.769531 -9.054688 13.84375 -8.546875 C 13.925781 -8.035156 13.957031 -7.492188 13.9375 -6.921875 C 13.925781 -6.347656 13.820312 -5.804688 13.625 -5.296875 L 5.296875 -5.296875 C 5.347656 -5.066406 5.441406 -4.78125 5.578125 -4.4375 C 5.722656 -4.09375 5.976562 -3.785156 6.34375 -3.515625 C 6.71875 -3.253906 7.273438 -3.125 8.015625 -3.125 C 8.472656 -3.125 9.023438 -3.179688 9.671875 -3.296875 C 10.328125 -3.421875 11.007812 -3.785156 11.71875 -4.390625 Z M 5.375 -7.90625 L 9.359375 -7.90625 C 9.359375 -8.238281 9.3125 -8.566406 9.21875 -8.890625 C 9.125 -9.222656 8.9375 -9.492188 8.65625 -9.703125 C 8.382812 -9.921875 7.96875 -10.03125 7.40625 -10.03125 C 6.875 -10.03125 6.460938 -9.894531 6.171875 -9.625 C 5.878906 -9.363281 5.675781 -9.066406 5.5625 -8.734375 C 5.445312 -8.410156 5.382812 -8.132812 5.375 -7.90625 Z M 5.375 -7.90625 "/></g></g></g><g fill="#1f2937" fill-opacity="1"><g transform="translate(119.691409, 40.650656)"><g><path d="M 8.8125 0 L 0.65625 0 L 0.65625 -3.46875 L 1.765625 -3.46875 L 1.765625 -9.78125 L 0.65625 -9.78125 L 0.65625 -13.21875 L 6.296875 -13.21875 L 6.90625 -11.59375 C 7.363281 -12.207031 7.898438 -12.710938 8.515625 -13.109375 C 9.128906 -13.503906 9.851562 -13.703125 10.6875 -13.703125 C 11.707031 -13.703125 12.535156 -13.53125 13.171875 -13.1875 C 13.804688 -12.84375 14.285156 -12.390625 14.609375 -11.828125 C 14.941406 -11.265625 15.164062 -10.640625 15.28125 -9.953125 C 15.40625 -9.265625 15.46875 -8.578125 15.46875 -7.890625 L 15.46875 -3.46875 L 16.71875 -3.46875 L 16.71875 0 L 10.046875 0 L 10.046875 -7.21875 C 10.046875 -7.519531 10.03125 -7.863281 10 -8.25 C 9.976562 -8.632812 9.863281 -8.96875 9.65625 -9.25 C 9.457031 -9.539062 9.097656 -9.6875 8.578125 -9.6875 C 8.128906 -9.6875 7.78125 -9.554688 7.53125 -9.296875 C 7.289062 -9.046875 7.125 -8.734375 7.03125 -8.359375 C 6.945312 -7.984375 6.90625 -7.601562 6.90625 -7.21875 L 6.90625 -3.46875 L 8.8125 -3.46875 Z M 8.8125 0 "/></g></g></g><g fill="#1f2937" fill-opacity="1"><g transform="translate(136.801376, 40.650656)"><g><path d="M 1.40625 -17.09375 C 1.40625 -17.5 1.515625 -17.90625 1.734375 -18.3125 C 1.953125 -18.726562 2.269531 -19.078125 2.6875 -19.359375 C 3.113281 -19.640625 3.640625 -19.78125 4.265625 -19.78125 C 4.878906 -19.78125 5.398438 -19.640625 5.828125 -19.359375 C 6.265625 -19.078125 6.597656 -18.726562 6.828125 -18.3125 C 7.054688 -17.90625 7.171875 -17.5 7.171875 -17.09375 C 7.171875 -16.363281 6.914062 -15.734375 6.40625 -15.203125 C 5.90625 -14.679688 5.191406 -14.421875 4.265625 -14.421875 C 3.710938 -14.421875 3.21875 -14.554688 2.78125 -14.828125 C 2.351562 -15.097656 2.015625 -15.4375 1.765625 -15.84375 C 1.523438 -16.25 1.40625 -16.664062 1.40625 -17.09375 Z M 8.0625 0 L 0.65625 0 L 0.65625 -3.46875 L 1.765625 -3.46875 L 1.765625 -9.78125 L 0.65625 -9.78125 L 0.65625 -13.21875 L 6.796875 -13.21875 L 6.796875 -3.46875 L 8.0625 -3.46875 Z M 8.0625 0 "/></g></g></g><g fill="#1f2937" fill-opacity="1"><g transform="translate(145.528253, 40.650656)"><g><path d="M 7.671875 0.34375 C 6.722656 0.34375 5.804688 0.195312 4.921875 -0.09375 C 4.035156 -0.382812 3.238281 -0.820312 2.53125 -1.40625 C 1.832031 -1.988281 1.28125 -2.71875 0.875 -3.59375 C 0.46875 -4.476562 0.273438 -5.503906 0.296875 -6.671875 C 0.296875 -7.773438 0.5 -8.75 0.90625 -9.59375 C 1.320312 -10.445312 1.875 -11.164062 2.5625 -11.75 C 3.25 -12.34375 4.019531 -12.789062 4.875 -13.09375 C 5.726562 -13.394531 6.617188 -13.546875 7.546875 -13.546875 C 8.929688 -13.523438 10.175781 -13.238281 11.28125 -12.6875 C 12.382812 -12.144531 13.253906 -11.359375 13.890625 -10.328125 C 14.535156 -9.296875 14.867188 -8.039062 14.890625 -6.5625 C 14.910156 -5.09375 14.597656 -3.84375 13.953125 -2.8125 C 13.304688 -1.78125 12.429688 -0.992188 11.328125 -0.453125 C 10.234375 0.078125 9.015625 0.34375 7.671875 0.34375 Z M 7.671875 -3.046875 C 8.234375 -3.046875 8.671875 -3.382812 8.984375 -4.0625 C 9.304688 -4.738281 9.46875 -5.570312 9.46875 -6.5625 C 9.46875 -7.550781 9.300781 -8.382812 8.96875 -9.0625 C 8.632812 -9.738281 8.160156 -10.085938 7.546875 -10.109375 C 7.023438 -10.109375 6.585938 -9.769531 6.234375 -9.09375 C 5.890625 -8.425781 5.71875 -7.609375 5.71875 -6.640625 C 5.71875 -5.566406 5.90625 -4.695312 6.28125 -4.03125 C 6.65625 -3.375 7.117188 -3.046875 7.671875 -3.046875 Z M 7.671875 -3.046875 "/></g></g></g><g fill="#fc9b64" fill-opacity="1"><g transform="translate(160.718166, 40.650656)"><g><path d="M 0.390625 -18.484375 L 8.8125 -18.484375 L 8.8125 -15.078125 L 7.375 -15.078125 L 7.375 -9.359375 C 7.375 -7.953125 7.472656 -6.875 7.671875 -6.125 C 7.878906 -5.375 8.179688 -4.863281 8.578125 -4.59375 C 8.972656 -4.332031 9.457031 -4.203125 10.03125 -4.203125 C 10.570312 -4.203125 11.039062 -4.316406 11.4375 -4.546875 C 11.832031 -4.773438 12.140625 -5.257812 12.359375 -6 C 12.585938 -6.738281 12.703125 -7.867188 12.703125 -9.390625 L 12.703125 -15 L 11.265625 -15 L 11.265625 -18.484375 L 19.09375 -18.484375 L 19.09375 -15.078125 L 17.671875 -15.078125 L 17.671875 -8.65625 C 17.671875 -5.507812 17.023438 -3.203125 15.734375 -1.734375 C 14.453125 -0.273438 12.566406 0.453125 10.078125 0.453125 C 7.410156 0.359375 5.375 -0.40625 3.96875 -1.84375 C 2.570312 -3.289062 1.875 -5.515625 1.875 -8.515625 L 1.875 -15.046875 L 0.390625 -15.046875 Z M 0.390625 -18.484375 "/></g></g></g><g fill="#fc9b64" fill-opacity="1"><g transform="translate(180.208196, 40.650656)"><g><path d="M 0.65625 1.9375 L 1.765625 1.9375 L 1.765625 -9.703125 L 0.65625 -9.703125 L 0.65625 -13.21875 L 6.71875 -13.21875 L 7.171875 -12.296875 C 7.421875 -12.492188 7.816406 -12.734375 8.359375 -13.015625 C 8.898438 -13.296875 9.570312 -13.4375 10.375 -13.4375 C 11.75 -13.4375 12.894531 -13.117188 13.8125 -12.484375 C 14.738281 -11.847656 15.4375 -11.003906 15.90625 -9.953125 C 16.375 -8.910156 16.609375 -7.757812 16.609375 -6.5 C 16.609375 -5.113281 16.34375 -3.90625 15.8125 -2.875 C 15.289062 -1.851562 14.570312 -1.066406 13.65625 -0.515625 C 12.75 0.0234375 11.722656 0.296875 10.578125 0.296875 C 9.859375 0.296875 9.25 0.21875 8.75 0.0625 C 8.257812 -0.0820312 7.882812 -0.238281 7.625 -0.40625 C 7.375 -0.570312 7.210938 -0.679688 7.140625 -0.734375 L 7.140625 1.9375 L 8.578125 1.9375 L 8.578125 5.390625 L 0.65625 5.390625 Z M 10.921875 -6.453125 C 10.921875 -6.984375 10.84375 -7.5 10.6875 -8 C 10.53125 -8.5 10.3125 -8.90625 10.03125 -9.21875 C 9.75 -9.539062 9.410156 -9.703125 9.015625 -9.703125 C 8.503906 -9.703125 8.050781 -9.398438 7.65625 -8.796875 C 7.257812 -8.191406 7.085938 -7.367188 7.140625 -6.328125 C 7.140625 -5.421875 7.332031 -4.660156 7.71875 -4.046875 C 8.113281 -3.441406 8.554688 -3.140625 9.046875 -3.140625 C 9.609375 -3.140625 10.0625 -3.441406 10.40625 -4.046875 C 10.75 -4.648438 10.921875 -5.453125 10.921875 -6.453125 Z M 10.921875 -6.453125 "/></g></g></g></svg>